 http://en.wikipedia.org/wiki/List_of_Louie_episodes

Format                           : Matroska
Format version                   : Version 2
File size                        : 22.7 GiB
Duration                         : 5h 15mn
Overall bit rate                 : 10.3 Mbps
Encoded date                     : UTC 2011-09-19 16:46:54
Writing application              : mkvmerge v4.9.1 ('Ich will') built on Sep 18 2011 15:54:30
Writing library                  : libebml v1.2.1 + libmatroska v1.2.0

Video
ID                               : 1
Format                           : AVC
Format/Info                      : Advanced Video Codec
Format profile                   : Main@L4.0
Format settings, CABAC           : Yes
Format settings, ReFrames        : 4 frames
Muxing mode                      : Header stripping
Codec ID                         : V_MPEG4/ISO/AVC
Duration                         : 5h 15mn
Bit rate                         : 8 344 Kbps
Width                            : 1 920 pixels
Height                           : 1 080 pixels
Display aspect ratio             : 16:9
Frame rate mode                  : Variable
Frame rate                       : 23.976 fps
Color space                      : YUV
Chroma subsampling               : 4:2:0
Bit depth                        : 8 bits
Scan type                        : Progressive
Bits/(Pixel*Frame)               : 0.168
Stream size                      : 18.4 GiB (81%)
Writing library                  : x264 core 116
Encoding settings                : cabac=1 / ref=1 / deblock=1:0:0 / analyse=0x1:0x111 / me=hex / subme=2 / psy=1 / psy_rd=1.00:0.00 / mixed_ref=0 / me_range=16 / chroma_me=1 / trellis=0 / 8x8dct=0 / cqm=0 / deadzone=21,11 / fast_pskip=1 / chroma_qp_offset=0 / threads=6 / sliced_threads=0 / nr=0 / decimate=1 / interlaced=0 / bluray_compat=0 / constrained_intra=0 / bframes=3 / b_pyramid=2 / b_adapt=1 / b_bias=0 / direct=1 / weightb=1 / open_gop=0 / weightp=1 / keyint=240 / keyint_min=24 / scenecut=40 / intra_refresh=0 / rc_lookahead=10 / rc=crf / mbtree=1 / crf=16.8 / qcomp=0.60 / qpmin=3 / qpmax=69 / qpstep=4 / ip_ratio=1.40 / aq=1:1.00
Language                         : English
Color primaries                  : BT.709-5, BT.1361, IEC 61966-2-4, SMPTE RP177
Transfer characteristics         : BT.709-5, BT.1361
Matrix coefficients              : BT.709-5, BT.1361, IEC 61966-2-4 709, SMPTE RP177

Audio #1
ID                               : 2
Format                           : DTS
Format/Info                      : Digital Theater Systems
Muxing mode                      : Header stripping
Codec ID                         : A_DTS
Duration                         : 5h 15mn
Bit rate mode                    : Constant
Bit rate                         : 1 510 Kbps
Channel(s)                       : 6 channels
Channel positions                : Front: L C R, Side: L R, LFE
Sampling rate                    : 48.0 KHz
Bit depth                        : 24 bits
Compression mode                 : Lossy
Stream size                      : 3.33 GiB (15%)

Audio #2
ID                               : 3
Format                           : AC-3
Format/Info                      : Audio Coding 3
Mode extension                   : CM (complete main)
Muxing mode                      : Header stripping
Codec ID                         : A_AC3
Duration                         : 5h 15mn
Bit rate mode                    : Constant
Bit rate                         : 224 Kbps
Channel(s)                       : 2 channels
Channel positions                : Front: L R
Sampling rate                    : 48.0 KHz
Bit depth                        : 16 bits
Compression mode                 : Lossy
Stream size                      : 506 MiB (2%)
Title                            : commentary

Menu
00:00:00.000                     : :Episode 01 - Pilot
00:23:45.472                     : :Episode 02 - Poker/Divorce
00:46:55.901                     : :Episode 03 - Dr. Ben/Nick
01:08:12.222                     : :Episode 04 - So Old/Playdate
01:29:41.566                     : :Episode 05 - Travel Day/South
01:50:52.894                     : :Episode 06 - Heckler/Cop Movie
02:12:59.246                     : :Episode 07 - Double Date/Mom
02:34:29.577                     : :Episode 08 - Dogpound
02:55:48.906                     : :Episode 09 - Bully
03:17:51.274                     : :Episode 10 - Dentist/Tarese
03:38:50.580                     : :Episode 11 - God
04:00:23.925                     : :Episode 12 - Gym
04:21:02.191                     : :Episode 13 - Night Out
04:42:09.712                     : :Deleted and Extended Scenes

NOTE:  Select Audio #2 for commentary...